TITLE ""
FILE "Disc3Track18.mp3" MP3
  TRACK 01 AUDIO
    TITLE "Disc3Track18_01"
    INDEX 01 00:00:00
  TRACK 02 AUDIO
    TITLE "Disc3Track18_02"
    INDEX 01 00:01:12
  TRACK 03 AUDIO
    TITLE "Disc3Track18_03"
    INDEX 01 00:02:31
  TRACK 04 AUDIO
    TITLE "Disc3Track18_04"
    INDEX 01 00:03:54
  TRACK 05 AUDIO
    TITLE "Disc3Track18_05"
    INDEX 01 00:05:66
  TRACK 06 AUDIO
    TITLE "Disc3Track18_06"
    INDEX 01 00:06:23
  TRACK 07 AUDIO
    TITLE "Disc3Track18_07"
    INDEX 01 00:07:51
  TRACK 08 AUDIO
    TITLE "Disc3Track18_08"
    INDEX 01 00:08:63
  TRACK 09 AUDIO
    TITLE "Disc3Track18_09"
    INDEX 01 00:10:17
  TRACK 10 AUDIO
    TITLE "Disc3Track18_10"
    INDEX 01 00:12:70
  TRACK 11 AUDIO
    TITLE "Disc3Track18_11"
    INDEX 01 00:13:27
  TRACK 12 AUDIO
    TITLE "Disc3Track18_12"
    INDEX 01 00:14:55
  TRACK 13 AUDIO
    TITLE "Disc3Track18_13"
    INDEX 01 00:16:15
  TRACK 14 AUDIO
    TITLE "Disc3Track18_14"
    INDEX 01 00:17:44
  TRACK 15 AUDIO
    TITLE "Disc3Track18_15"
    INDEX 01 00:22:10
  TRACK 16 AUDIO
    TITLE "Disc3Track18_16"
    INDEX 01 00:22:41
  TRACK 17 AUDIO
    TITLE "Disc3Track18_17"
    INDEX 01 00:24:09
  TRACK 18 AUDIO
    TITLE "Disc3Track18_18"
    INDEX 01 00:25:14
  TRACK 19 AUDIO
    TITLE "Disc3Track18_19"
    INDEX 01 00:26:55
  TRACK 20 AUDIO
    TITLE "Disc3Track18_20"
    INDEX 01 00:31:23
  TRACK 21 AUDIO
    TITLE "Disc3Track18_21"
    INDEX 01 00:31:56
  TRACK 22 AUDIO
    TITLE "Disc3Track18_22"
    INDEX 01 00:33:14
  TRACK 23 AUDIO
    TITLE "Disc3Track18_23"
    INDEX 01 00:34:31
  TRACK 24 AUDIO
    TITLE "Disc3Track18_24"
    INDEX 01 00:35:65
  TRACK 25 AUDIO
    TITLE "Disc3Track18_25"
    INDEX 01 00:36:28
  TRACK 26 AUDIO
    TITLE "Disc3Track18_26"
    INDEX 01 00:37:68
  TRACK 27 AUDIO
    TITLE "Disc3Track18_27"
    INDEX 01 00:39:28
  TRACK 28 AUDIO
    TITLE "Disc3Track18_28"
    INDEX 01 00:40:73
  TRACK 29 AUDIO
    TITLE "Disc3Track18_29"
    INDEX 01 00:41:33
  TRACK 30 AUDIO
    TITLE "Disc3Track18_30"
    INDEX 01 00:44:13
  TRACK 31 AUDIO
    TITLE "Disc3Track18_31"
    INDEX 01 00:46:03
  TRACK 32 AUDIO
    TITLE "Disc3Track18_32"
    INDEX 01 00:48:54
  TRACK 33 AUDIO
    TITLE "Disc3Track18_33"
    INDEX 01 00:54:59
  TRACK 34 AUDIO
    TITLE "Disc3Track18_34"
    INDEX 01 00:55:19
  TRACK 35 AUDIO
    TITLE "Disc3Track18_35"
    INDEX 01 00:57:53
  TRACK 36 AUDIO
    TITLE "Disc3Track18_36"
    INDEX 01 00:59:62
  TRACK 37 AUDIO
    TITLE "Disc3Track18_37"
    INDEX 01 01:02:21
  TRACK 38 AUDIO
    TITLE "Disc3Track18_38"
    INDEX 01 01:05:49
  TRACK 39 AUDIO
    TITLE "Disc3Track18_39"
    INDEX 01 01:06:05
  TRACK 40 AUDIO
    TITLE "Disc3Track18_40"
    INDEX 01 01:07:38
  TRACK 41 AUDIO
    TITLE "Disc3Track18_41"
    INDEX 01 01:08:43
  TRACK 42 AUDIO
    TITLE "Disc3Track18_42"
    INDEX 01 01:09:72
  TRACK 43 AUDIO
    TITLE "Disc3Track18_43"
    INDEX 01 01:12:25
